<svg width="251" height="73" viewBox="0 0 251 73" fill="none" xmlns="http://www.w3.org/2000/svg">
<path d="M1.88337 67V48.5932H4.3192V64.8278H13.3845V67H1.88337ZM16.0212 51.1922V48.5932H18.2812V51.1922H16.0212ZM16.0212 67V53.6657H18.2812V67H16.0212ZM25.4381 67L20.3655 53.6657H22.7511L25.6138 61.6512C25.9235 62.5134 26.2081 63.409 26.4676 64.3382C26.6685 63.635 26.9489 62.7896 27.3089 61.8019L30.272 53.6657H32.5949L27.5474 67H25.4381ZM34.6038 51.1922V48.5932H36.8638V51.1922H34.6038ZM34.6038 67V53.6657H36.8638V67H34.6038ZM40.3167 67V53.6657H42.3507V55.5617C43.3301 54.0968 44.7447 53.3644 46.5946 53.3644C47.3982 53.3644 48.1348 53.5109 48.8044 53.8039C49.4824 54.0884 49.9888 54.4651 50.3237 54.9339C50.6585 55.4026 50.8929 55.9593 51.0268 56.6038C51.1105 57.0223 51.1523 57.7547 51.1523 58.8011V67H48.8923V58.889C48.8923 57.9682 48.8044 57.2818 48.6286 56.8298C48.4528 56.3694 48.1389 56.0053 47.6869 55.7374C47.2433 55.4612 46.7201 55.3231 46.1175 55.3231C45.1549 55.3231 44.322 55.6286 43.6189 56.2397C42.9241 56.8507 42.5767 58.01 42.5767 59.7176V67H40.3167ZM54.216 68.1049L56.4132 68.4314C56.5053 69.1094 56.7606 69.6032 57.1791 69.9129C57.74 70.3315 58.5059 70.5407 59.4768 70.5407C60.5232 70.5407 61.3309 70.3315 61.9001 69.9129C62.4693 69.4944 62.8543 68.9085 63.0552 68.1551C63.1724 67.6948 63.2268 66.728 63.2185 65.2547C62.2307 66.4182 61.0003 67 59.5271 67C57.6939 67 56.2751 66.3387 55.2706 65.0162C54.2662 63.6936 53.7639 62.1074 53.7639 60.2575C53.7639 58.9852 53.9941 57.8133 54.4545 56.7419C54.9149 55.6621 55.5804 54.8292 56.4509 54.2433C57.3298 53.6574 58.3594 53.3644 59.5396 53.3644C61.1133 53.3644 62.4107 54.0006 63.4319 55.2729V53.6657H65.5162V65.192C65.5162 67.2679 65.3027 68.7369 64.8758 69.5991C64.4573 70.4696 63.7877 71.156 62.8669 71.6582C61.9545 72.1604 60.8287 72.4116 59.4894 72.4116C57.899 72.4116 56.6141 72.0516 55.6348 71.3318C54.6554 70.6203 54.1825 69.5446 54.216 68.1049ZM56.0868 60.0943C56.0868 61.8438 56.4341 63.1203 57.1289 63.9238C57.8237 64.7274 58.6942 65.1292 59.7405 65.1292C60.7785 65.1292 61.649 64.7316 62.3521 63.9364C63.0552 63.1328 63.4068 61.8772 63.4068 60.1696C63.4068 58.5374 63.0427 57.3069 62.3144 56.4782C61.5946 55.6496 60.724 55.2352 59.7028 55.2352C58.6984 55.2352 57.8446 55.6454 57.1415 56.4657C56.4383 57.2776 56.0868 58.4872 56.0868 60.0943ZM79.6038 67L74.7196 48.5932H77.2182L80.0181 60.6593C80.3195 61.9233 80.579 63.1789 80.7966 64.4261C81.2653 62.459 81.5416 61.3248 81.6253 61.0234L85.1283 48.5932H88.0664L90.7031 57.9096C91.3644 60.2199 91.8415 62.392 92.1345 64.4261C92.3689 63.2626 92.6744 61.9275 93.0511 60.4208L95.9389 48.5932H98.3873L93.3398 67H90.9919L87.1122 52.9752C86.7857 51.8033 86.5932 51.0834 86.5346 50.8156C86.3421 51.661 86.1621 52.3809 85.9947 52.9752L82.0898 67H79.6038ZM109.035 62.7059L111.37 62.9947C111.002 64.3591 110.319 65.418 109.323 66.1713C108.327 66.9247 107.055 67.3013 105.506 67.3013C103.556 67.3013 102.008 66.7028 100.861 65.5059C99.7224 64.3005 99.1532 62.6138 99.1532 60.4459C99.1532 58.2026 99.7307 56.4615 100.886 55.2227C102.041 53.9838 103.539 53.3644 105.381 53.3644C107.164 53.3644 108.62 53.9713 109.75 55.185C110.88 56.3987 111.445 58.1063 111.445 60.3078C111.445 60.4417 111.441 60.6426 111.433 60.9104H101.489C101.572 62.3753 101.987 63.4969 102.732 64.2754C103.477 65.0539 104.406 65.4431 105.519 65.4431C106.348 65.4431 107.055 65.2254 107.641 64.7902C108.227 64.3549 108.691 63.6602 109.035 62.7059ZM101.614 59.0522H109.06C108.959 57.9305 108.675 57.0893 108.206 56.5285C107.486 55.6579 106.553 55.2227 105.406 55.2227C104.368 55.2227 103.493 55.57 102.782 56.2648C102.079 56.9595 101.689 57.8887 101.614 59.0522ZM116.304 67H114.208V48.5932H116.468V55.1599C117.422 53.9629 118.64 53.3644 120.121 53.3644C120.942 53.3644 121.716 53.5318 122.444 53.8666C123.181 54.1931 123.783 54.6576 124.252 55.2603C124.729 55.8546 125.102 56.5745 125.37 57.4199C125.638 58.2653 125.771 59.1694 125.771 60.132C125.771 62.4171 125.206 64.1833 124.076 65.4305C122.946 66.6777 121.59 67.3013 120.008 67.3013C118.435 67.3013 117.2 66.6443 116.304 65.3301V67ZM116.279 60.2324C116.279 61.8312 116.497 62.9863 116.932 63.6978C117.644 64.8613 118.606 65.4431 119.82 65.4431C120.808 65.4431 121.662 65.0162 122.381 64.1624C123.101 63.3002 123.461 62.0195 123.461 60.3203C123.461 58.5792 123.114 57.2944 122.419 56.4657C121.733 55.637 120.9 55.2227 119.92 55.2227C118.933 55.2227 118.079 55.6537 117.359 56.5159C116.639 57.3697 116.279 58.6085 116.279 60.2324Z" fill="black"/>
<path d="M162.398 67V48.5932H164.834V67H162.398ZM168.852 67V53.6657H170.886V55.5617C171.865 54.0968 173.28 53.3644 175.13 53.3644C175.933 53.3644 176.67 53.5109 177.34 53.8039C178.018 54.0884 178.524 54.4651 178.859 54.9339C179.194 55.4026 179.428 55.9593 179.562 56.6038C179.646 57.0223 179.687 57.7547 179.687 58.8011V67H177.427V58.889C177.427 57.9682 177.34 57.2818 177.164 56.8298C176.988 56.3694 176.674 56.0053 176.222 55.7374C175.778 55.4612 175.255 55.3231 174.653 55.3231C173.69 55.3231 172.857 55.6286 172.154 56.2397C171.459 56.8507 171.112 58.01 171.112 59.7176V67H168.852ZM182.261 63.0198L184.496 62.6682C184.622 63.5639 184.969 64.2503 185.539 64.7274C186.116 65.2045 186.92 65.4431 187.949 65.4431C188.987 65.4431 189.757 65.2338 190.259 64.8153C190.762 64.3884 191.013 63.8903 191.013 63.3211C191.013 62.8105 190.791 62.4088 190.347 62.1158C190.038 61.9149 189.268 61.6596 188.037 61.3499C186.38 60.9314 185.229 60.5714 184.584 60.2701C183.948 59.9604 183.463 59.5377 183.128 59.002C182.801 58.4579 182.638 57.8594 182.638 57.2065C182.638 56.6122 182.772 56.0639 183.04 55.5617C183.316 55.0511 183.689 54.6283 184.157 54.2935C184.509 54.034 184.986 53.8164 185.589 53.6406C186.2 53.4565 186.853 53.3644 187.547 53.3644C188.594 53.3644 189.51 53.5151 190.297 53.8164C191.092 54.1177 191.678 54.5279 192.055 55.0469C192.432 55.5575 192.691 56.2439 192.833 57.106L190.624 57.4074C190.523 56.721 190.23 56.1853 189.745 55.8002C189.268 55.4152 188.59 55.2227 187.711 55.2227C186.673 55.2227 185.932 55.3943 185.488 55.7374C185.045 56.0806 184.823 56.4824 184.823 56.9428C184.823 57.2358 184.915 57.4994 185.099 57.7338C185.283 57.9766 185.572 58.1775 185.965 58.3365C186.191 58.4202 186.857 58.6127 187.962 58.9141C189.561 59.341 190.674 59.6925 191.302 59.9688C191.938 60.2366 192.436 60.63 192.796 61.149C193.156 61.668 193.336 62.3125 193.336 63.0826C193.336 63.8359 193.114 64.5474 192.67 65.2171C192.235 65.8783 191.603 66.3931 190.774 66.7614C189.946 67.1214 189.008 67.3013 187.962 67.3013C186.229 67.3013 184.907 66.9414 183.994 66.2215C183.09 65.5017 182.513 64.4344 182.261 63.0198ZM200.957 64.9785L201.283 66.9749C200.647 67.1088 200.078 67.1758 199.576 67.1758C198.756 67.1758 198.119 67.046 197.667 66.7866C197.215 66.5271 196.897 66.1881 196.713 65.7695C196.529 65.3426 196.437 64.4512 196.437 63.0951V55.4235H194.78V53.6657H196.437V50.3636L198.684 49.0075V53.6657H200.957V55.4235H198.684V63.2207C198.684 63.8652 198.722 64.2796 198.797 64.4637C198.881 64.6479 199.011 64.7944 199.187 64.9032C199.371 65.012 199.63 65.0664 199.965 65.0664C200.216 65.0664 200.547 65.0371 200.957 64.9785ZM203.192 51.1922V48.5932H205.452V51.1922H203.192ZM203.192 67V53.6657H205.452V67H203.192ZM213.839 64.9785L214.166 66.9749C213.53 67.1088 212.96 67.1758 212.458 67.1758C211.638 67.1758 211.002 67.046 210.55 66.7866C210.098 66.5271 209.78 66.1881 209.595 65.7695C209.411 65.3426 209.319 64.4512 209.319 63.0951V55.4235H207.662V53.6657H209.319V50.3636L211.567 49.0075V53.6657H213.839V55.4235H211.567V63.2207C211.567 63.8652 211.604 64.2796 211.68 64.4637C211.763 64.6479 211.893 64.7944 212.069 64.9032C212.253 65.012 212.513 65.0664 212.847 65.0664C213.098 65.0664 213.429 65.0371 213.839 64.9785ZM224.8 67V65.0413C223.763 66.548 222.352 67.3013 220.569 67.3013C219.782 67.3013 219.046 67.1507 218.359 66.8493C217.681 66.548 217.175 66.1713 216.84 65.7193C216.514 65.2589 216.283 64.6981 216.15 64.0368C216.057 63.5932 216.011 62.8901 216.011 61.9275V53.6657H218.271V61.0611C218.271 62.2414 218.318 63.0366 218.41 63.4467C218.552 64.041 218.853 64.5098 219.314 64.853C219.774 65.1878 220.343 65.3552 221.021 65.3552C221.699 65.3552 222.335 65.1836 222.93 64.8404C223.524 64.4888 223.943 64.0159 224.185 63.4216C224.436 62.8189 224.562 61.9484 224.562 60.81V53.6657H226.822V67H224.8ZM235.31 64.9785L235.636 66.9749C235 67.1088 234.431 67.1758 233.929 67.1758C233.108 67.1758 232.472 67.046 232.02 66.7866C231.568 66.5271 231.25 66.1881 231.066 65.7695C230.882 65.3426 230.79 64.4512 230.79 63.0951V55.4235H229.132V53.6657H230.79V50.3636L233.037 49.0075V53.6657H235.31V55.4235H233.037V63.2207C233.037 63.8652 233.075 64.2796 233.15 64.4637C233.234 64.6479 233.364 64.7944 233.539 64.9032C233.723 65.012 233.983 65.0664 234.318 65.0664C234.569 65.0664 234.9 65.0371 235.31 64.9785ZM246.66 62.7059L248.996 62.9947C248.627 64.3591 247.945 65.418 246.949 66.1713C245.953 66.9247 244.681 67.3013 243.132 67.3013C241.182 67.3013 239.633 66.7028 238.486 65.5059C237.348 64.3005 236.779 62.6138 236.779 60.4459C236.779 58.2026 237.356 56.4615 238.511 55.2227C239.667 53.9838 241.165 53.3644 243.006 53.3644C244.789 53.3644 246.246 53.9713 247.376 55.185C248.506 56.3987 249.071 58.1063 249.071 60.3078C249.071 60.4417 249.067 60.6426 249.058 60.9104H239.114C239.198 62.3753 239.612 63.4969 240.357 64.2754C241.102 65.0539 242.031 65.4431 243.145 65.4431C243.973 65.4431 244.681 65.2254 245.266 64.7902C245.852 64.3549 246.317 63.6602 246.66 62.7059ZM239.24 59.0522H246.685C246.585 57.9305 246.3 57.0893 245.831 56.5285C245.112 55.6579 244.178 55.2227 243.032 55.2227C241.994 55.2227 241.119 55.57 240.407 56.2648C239.704 56.9595 239.315 57.8887 239.24 59.0522Z" fill="black"/>
<path d="M126 13.5C126 9.39272 129.001 3.29574 133 2.00005C134.454 1.529 138.688 0.5174 144.5 2.00003C148.953 5.5174 149.728 7.32207 151 10C152.639 13.4509 151.612 21.8841 149.265 24.5001C147.56 26.4018 144.949 28.8169 142.295 29.6154C140.256 30.2287 137.39 28.8237 137.39 32.2321C137.39 37.7585 140.875 42.3963 140.875 48.0001" stroke="black" stroke-linecap="round"/>
<path d="M142.198 57C138.958 57 139 59.786 139 62.7273C139 65.8462 141.027 66 143.796 66C145.799 66 147.101 62.2381 146.994 60.2727C146.908 58.6862 142.81 57 141.398 57" stroke="black" stroke-linecap="round"/>
</svg>
